# xmcd CD database file
#
# Track frame offsets:
#	150
#	13134
#	25692
#	36425
#	50175
#	61967
#	73799
#	85062
#	98761
#	109169
#	120809
#	133290
#	147799
#	159365
#	172018
#	181344
#	195130
#	213044
#	224918
#	236920
#
# Disc length: 3280 seconds
#
# Revision: 0
# Processed by: cddbd v1.5.2PL0 Copyright (c) Steve Scherf et al.
# Submitted via: CDex 1.70beta2
#
DISCID=200cce14
DTITLE=Country Hits - 100 Essential Tracks Country Hits CD 1
DYEAR=2009
DGENRE=Country
TTITLE0=Jim Reeves - Distant drums
TTITLE1=Hank Snow - I've been everywhere
TTITLE2=Hank Locklin - Plese help me (I'm falling)
TTITLE3=Lefty Frizell - Saginaw Michigan
TTITLE4=Tennesse Ernie Ford - 16 tons
TTITLE5=Wanda Jackson - Right or wrong
TTITLE6=Chet Atkins - Wheels
TTITLE7=Jimmy Dean - Big bad John
TTITLE8=Connie Smith - Once day
TTITLE9=Connie SmithDotty West - Here comes my baby
TTITLE10=Floyd Cramer - Last date
TTITLE11=Melba Montgomery - No charge
TTITLE12=Slim Whitman - Happy anniversary
TTITLE13=Stonewall Jackson - B.J. the D.J.
TTITLE14=Lester Flatt and Earl Scruggs - The ballad of Jed Clempett
TTITLE15=Tammy Wynette - Till I can make it on my own
TTITLE16=Marty Robbins - Big iron
TTITLE17=Skeeter Davis - The end of the world
TTITLE18=Eddy Arnold - Make the world go away
TTITLE19=Frankie Laine - Rawhide
EXTD=YEAR: 2009
EXTT0=
EXTT1=
EXTT2=
EXTT3=
EXTT4=
EXTT5=
EXTT6=
EXTT7=
EXTT8=
EXTT9=
EXTT10=
EXTT11=
EXTT12=
EXTT13=
EXTT14=
EXTT15=
EXTT16=
EXTT17=
EXTT18=
EXTT19=
PLAYORDER=
